<?xml version="1.0" encoding="UTF-8" standalone="no"?>
<svg
   width="1600"
   height="450"
   viewBox="0 0 1600 450"
   version="1.1"
   id="svg14"
   sodipodi:docname="logo_wordmark_inverted.svg"
   xmlns:inkscape="http://www.inkscape.org/namespaces/inkscape"
   xmlns:sodipodi="http://sodipodi.sourceforge.net/DTD/sodipodi-0.dtd"
   xmlns="http://www.w3.org/2000/svg"
   xmlns:svg="http://www.w3.org/2000/svg">
  <defs
     id="defs18" />
  <sodipodi:namedview
     id="namedview16"
     pagecolor="#ffffff"
     bordercolor="#000000"
     borderopacity="0.25"
     inkscape:showpageshadow="2"
     inkscape:pageopacity="0.0"
     inkscape:pagecheckerboard="0"
     inkscape:deskcolor="#d1d1d1" />
  <rect
     width="100%"
     height="100%"
     fill="none"
     id="rect2" />
  <g
     id="g12">
    <g
       aria-label="Nexus"
       id="text4"
       style="font-weight:800;font-size:220px;font-family:Inter, system-ui, '-apple-system', 'Segoe UI', Roboto, Arial, sans-serif;letter-spacing:-6;fill:#ffffff">
      <path
         d="M 288.28125,75 H 249.6875 v 92.1875 h -1.32813 L 185.39062,75 h -33.28125 v 160 h 38.67188 v -92.34375 h 1.01562 L 255.46875,235 h 32.8125 z"
         id="path20" />
      <path
         d="m 362.59363,237.26562 c 31.48437,0 52.1875,-15.23437 56.5625,-38.82812 L 384.078,197.42187 c -2.96875,7.96875 -10.78125,12.26563 -20.78125,12.26563 -14.6875,0 -23.75,-9.76563 -23.75,-24.45313 v -1.01562 h 80 v -9.53125 c 0,-39.53125 -24.0625,-61.25 -58.125,-61.25 -36.25,0 -59.53125,24.84375 -59.53125,62.03125 0,38.4375 22.96875,61.79687 60.70313,61.79687 z m -23.04688,-75.23437 c 0.54688,-11.95313 10,-21.01563 22.65625,-21.01563 12.57813,0 21.64063,8.75 21.79688,21.01563 z"
         id="path22" />
      <path
         d="m 464.01553,115 h -38.75 l 33.125,60 -34.84375,60 h 38.75 L 483.78116,195.15625 505.81241,235 h 38.20312 l -34.76562,-60 33.51562,-60 h -38.51562 l -20.46875,39.53125 z"
         id="path24" />
      <path
         d="m 631.68756,183.20312 c 0,13.98438 -8.90625,21.79688 -20.23437,21.79688 -11.71875,0 -18.90625,-7.96875 -18.98438,-21.01563 V 115 h -38.20312 v 76.48437 c 0.0781,27.10938 16.5625,45.07813 41.25,45.07813 17.96875,0 31.32812,-9.21875 36.64062,-23.90625 h 1.25 V 235 h 36.40625 V 115 h -38.125 z"
         id="path26" />
      <path
         d="M 792.87488,151.64062 C 790.84363,127.89063 771.3905,113.4375 738.8905,113.4375 c -32.5,0 -53.20312,14.14063 -53.04687,38.20312 -0.15625,18.4375 11.64062,30.3125 35.625,34.76563 l 20.9375,3.98437 c 9.92187,1.95313 14.45312,5.07813 14.60937,10.39063 -0.15625,6.01562 -6.875,10 -16.64062,10 -10.85938,0 -18.20313,-4.6875 -19.84375,-13.4375 l -37.73438,0.9375 c 2.73438,23.75 23.125,38.98437 57.42188,38.98437 32.10937,0 55.46875,-16.01562 55.625,-40.70312 -0.15625,-17.5 -11.71875,-27.89063 -35.625,-32.5 l -23.125,-4.375 c -10.15625,-2.03125 -13.4375,-5.625 -13.35938,-10.23438 -0.0781,-6.09375 7.03125,-9.84375 15.85938,-9.84375 10.07812,0 17.10937,5.39063 18.20312,12.96875 z"
         id="path28" />
    </g>
    <path
       id="circle6"
       style="fill:#6a2cff"
       d="m 972,150 a 12,12 0 0 1 -12,12 12,12 0 0 1 -12,-12 12,12 0 0 1 12,-12 12,12 0 0 1 12,12 z" />
    <g
       aria-label="ACADEMY"
       id="text8"
       style="font-weight:500;font-size:92px;font-family:Inter, system-ui, '-apple-system', 'Segoe UI', Roboto, Arial, sans-serif;letter-spacing:18;fill:#d1d5db">
      <path
         d="m 153.00284,325 6.14205,-17.70739 h 26.13636 L 191.39062,325 h 10.71591 L 178.02841,258.09091 H 166.36506 L 142.28693,325 Z m 9.08239,-26.2017 9.86647,-28.55398 h 0.52273 l 9.86648,28.55398 z"
         id="path32" />
      <path
         d="m 282.18041,279.84943 c -2.28693,-14.30966 -13.49289,-22.67329 -27.6392,-22.67329 -17.31534,0 -30.08949,12.97017 -30.08949,34.36931 0,21.39915 12.70881,34.36932 30.08949,34.36932 14.7017,0 25.45028,-9.21307 27.6392,-22.4446 l -10.19318,-0.0327 c -1.73153,8.55966 -8.91903,13.2642 -17.38068,13.2642 -11.46733,0 -20.125,-8.78835 -20.125,-25.15625 0,-16.23721 8.625,-25.15625 20.15767,-25.15625 8.52699,0 15.68182,4.80256 17.34801,13.46023 z"
         id="path34" />
      <path
         d="m 317.4959,325 6.14204,-17.70739 h 26.13637 L 355.88368,325 h 10.71591 L 342.52147,258.09091 H 330.85811 L 306.77999,325 Z m 9.08238,-26.2017 9.86648,-28.55398 h 0.52273 l 9.86648,28.55398 z"
         id="path36" />
      <path
         d="m 415.89782,325 c 20.38637,0 32.1804,-12.64347 32.1804,-33.55256 0,-20.81108 -11.79403,-33.35653 -31.49432,-33.35653 H 394.23731 V 325 Z m -11.56534,-8.82102 v -49.26705 h 11.63068 c 14.63637,0 22.18324,8.75568 22.18324,24.53551 0,15.84517 -7.54687,24.73154 -22.80397,24.73154 z"
         id="path38" />
      <path
         d="m 478.62359,325 h 42.34091 v -8.69034 h -32.24574 v -20.48438 h 29.66477 v -8.65767 h -29.66477 v -20.38636 h 31.85369 v -8.69034 h -41.94886 z"
         id="path40" />
      <path
         d="M 552.09808,258.09091 V 325 h 9.60511 v -48.45028 h 0.62074 l 19.73295,48.35227 h 7.97159 l 19.73296,-48.3196 h 0.62074 V 325 h 9.60511 v -66.90909 h -12.25142 l -21.30114,52.01136 h -0.78409 L 564.3495,258.09091 Z"
         id="path42" />
      <path
         d="m 647.52712,258.09091 24.27414,40.64204 V 325 h 10.0625 v -26.26705 l 24.27415,-40.64204 h -11.46733 l -17.47869,30.41619 h -0.71875 l -17.47869,-30.41619 z"
         id="path44" />
    </g>
    <path
       id="line10"
       style="stroke:#6a2cff;stroke-width:8;stroke-linecap:round"
       d="M 140,365 H 500" />
  </g>
</svg>
